<?xml version="1.0" encoding="utf-8"?>
<!-- Generator: Adobe Illustrator 22.0.1, SVG Export Plug-In . SVG Version: 6.00 Build 0)  -->
<svg version="1.1" id="Слой_1" xmlns="http://www.w3.org/2000/svg" xmlns:xlink="http://www.w3.org/1999/xlink" x="0px" y="0px"
	 viewBox="0 0 76 76" style="enable-background:new 0 0 76 76;" xml:space="preserve">
<style type="text/css">
	.st0{fill:#FFFFFF;}
	.st1{fill:#FF4747;}
</style>
<g id="Лого_копия_1_">
	<g id="RedRee">
	</g>
	<g id="digital_agency">
	</g>
</g>
<g id="Итог">
	<g id="Эллипс_1_копия_16_">
		<g>
			<ellipse class="st0" cx="38.1" cy="38.1" rx="37.5" ry="37.8"/>
		</g>
	</g>
	<g>
		<path class="st1" d="M53,54.3c-0.1,0-0.1,0.1-0.3,0.1c0.2,0.2,0.3,0.5,0.3,0.7c0,0.8-0.6,1.3-1.6,1.3c-1,0-1.7-0.5-1.7-1.3
			c0-0.3,0.1-0.5,0.3-0.7c0,0-0.3,0-0.5,0h-1.2l0.1-0.7h3.4c0.6,0,0.9-0.1,1.1-0.1L53,54.3L53,54.3z M50.6,54.4
			c-0.1,0.1-0.3,0.3-0.3,0.5c0,0.4,0.3,0.6,1.1,0.6c0.7,0,1-0.1,1-0.7c0-0.3-0.1-0.5-0.3-0.5L50.6,54.4L50.6,54.4z"/>
		<path class="st1" d="M49.3,52.3c0,0.3-0.2,0.4-0.5,0.4c-0.3,0-0.5-0.2-0.5-0.5s0.2-0.5,0.5-0.5C49.1,51.9,49.3,52.1,49.3,52.3z
			 M53,52.6h-3.1L49.8,52H53C53,52,53,52.6,53,52.6z"/>
		<path class="st1" d="M50.4,48.6c0,0.1,0,0.2,0,0.3c0,0,0.2-0.2,0.5-0.2c0.5,0,0.9,0.5,0.9,1.2c0.1,0.2,0.2,0.4,0.3,0.4
			c0.1,0,0.1-0.1,0.1-0.8c0-0.5,0.3-1,0.9-1c0.7,0,1,0.5,1,1.4c0,0.8-0.3,1.4-0.9,1.4c-0.1,0-0.3-0.1-0.3-0.1v-0.7
			c0,0,0.1,0.1,0.2,0.1c0.3,0,0.5-0.3,0.5-0.7c0-0.5-0.2-0.7-0.5-0.7c-0.3,0-0.4,0.3-0.4,0.9c0,0.8-0.1,1-0.5,1s-0.4-0.3-0.5-0.6
			c-0.1,0.5-0.5,0.7-0.9,0.7c-0.6,0-1.1-0.5-1.1-1.2c0-0.5,0.1-0.7,0.1-0.9c0-0.2-0.1-0.4-0.2-0.5l0.4-0.3
			C50.3,48.2,50.4,48.4,50.4,48.6z M50.3,49.9c0,0.3,0.2,0.5,0.5,0.5s0.5-0.2,0.5-0.5s-0.2-0.5-0.5-0.5
			C50.5,49.3,50.3,49.5,50.3,49.9z"/>
		<path class="st1" d="M49.3,47.2c0,0.3-0.2,0.4-0.5,0.4c-0.3,0-0.5-0.2-0.5-0.5c0-0.3,0.2-0.5,0.5-0.5C49.1,46.8,49.3,47,49.3,47.2
			z M53,47.6h-3.1l-0.1-0.7H53C53,46.9,53,47.6,53,47.6z"/>
		<path class="st1" d="M53.1,45c0,0.6-0.3,0.8-0.8,0.8h-2v0.3h-0.5v-0.3c-0.3,0-0.5,0-0.8,0l-0.1-0.7c0.3,0,0.6,0.1,0.9,0.1v-0.8
			l0.5,0.2v0.5h1.8c0.4,0,0.5-0.1,0.5-0.4c0-0.1,0-0.2-0.1-0.3l0.4-0.1C53.1,44.6,53.1,44.8,53.1,45z"/>
		<path class="st1" d="M53.1,41.7c-0.1,0.2-0.2,0.3-0.4,0.4c0.3,0.3,0.4,0.5,0.4,0.9c0,0.7-0.4,1-0.9,1c-0.7,0-1.1-0.5-1.1-1.6v-0.2
			H51c-0.3,0-0.5,0.1-0.5,0.4c0,0.5,0.3,0.9,0.3,0.9l-0.5,0.3c-0.3-0.5-0.4-0.9-0.4-1.4s0.2-0.8,0.5-0.9c0.1-0.1,0.3-0.1,0.7-0.1
			h0.9c0.4,0,0.5,0,0.7-0.3L53.1,41.7z M51.5,42.4c0,0.7,0.2,0.9,0.6,0.9c0.3,0,0.5-0.1,0.5-0.4c0-0.2-0.1-0.4-0.3-0.5L51.5,42.4
			C51.5,42.3,51.5,42.4,51.5,42.4z"/>
		<path class="st1" d="M53.1,39.8c0,0.7-0.6,0.7-0.9,0.7h-2.7c-0.4,0-0.7,0-0.9,0.1l-0.1-0.7c0.2-0.1,0.5-0.1,0.9-0.1H52
			c0.4,0,0.5,0,0.5-0.1c0.1-0.1,0.1-0.1,0.1-0.2l0.4-0.1C53.1,39.6,53.1,39.7,53.1,39.8z"/>
		<path class="st1" d="M53.1,35.4c-0.1,0.2-0.2,0.3-0.4,0.4c0.3,0.3,0.4,0.5,0.4,0.9c0,0.7-0.4,1-0.9,1c-0.7,0-1.1-0.5-1.1-1.6v-0.2
			H51c-0.3,0-0.5,0.1-0.5,0.4c0,0.5,0.3,0.9,0.3,0.9l-0.5,0.3c-0.3-0.5-0.4-0.9-0.4-1.4s0.2-0.8,0.5-0.9c0.1-0.1,0.3-0.1,0.7-0.1
			h0.9c0.4,0,0.5,0,0.7-0.3L53.1,35.4z M51.5,36.1c0,0.7,0.2,0.9,0.6,0.9c0.3,0,0.5-0.1,0.5-0.4c0-0.2-0.1-0.4-0.3-0.5L51.5,36.1
			C51.5,35.9,51.5,36,51.5,36.1z"/>
		<path class="st1" d="M50.4,31.9c0,0.1,0,0.2,0,0.3c0,0,0.2-0.2,0.5-0.2c0.5,0,0.9,0.5,0.9,1.2c0.1,0.2,0.2,0.4,0.3,0.4
			c0.1,0,0.1-0.1,0.1-0.8c0-0.5,0.3-1,0.9-1c0.7,0,1,0.5,1,1.4c0,0.8-0.3,1.4-0.9,1.4c-0.1,0-0.3-0.1-0.3-0.1v-0.7
			c0,0,0.1,0.1,0.2,0.1c0.3,0,0.5-0.3,0.5-0.7c0-0.5-0.2-0.7-0.5-0.7c-0.3,0-0.4,0.3-0.4,0.9c0,0.8-0.1,1-0.5,1s-0.4-0.3-0.5-0.6
			c-0.1,0.5-0.5,0.7-0.9,0.7c-0.6,0-1.1-0.5-1.1-1.2c0-0.5,0.1-0.7,0.1-0.9c0-0.2-0.1-0.4-0.2-0.5l0.4-0.3
			C50.3,31.5,50.4,31.7,50.4,31.9z M50.3,33.1c0,0.3,0.2,0.5,0.5,0.5s0.5-0.2,0.5-0.5s-0.2-0.5-0.5-0.5
			C50.5,32.6,50.3,32.8,50.3,33.1z"/>
		<path class="st1" d="M51.6,30.4L51.6,30.4c0.5,0,0.9-0.1,0.9-0.7c0-0.3-0.1-0.5-0.3-0.8l0.4-0.3c0.3,0.3,0.4,0.7,0.4,1.2
			c0,0.9-0.6,1.4-1.6,1.4c-0.5,0-0.9-0.1-1.2-0.4s-0.4-0.5-0.4-0.9c0-0.3,0.1-0.6,0.3-0.9c0.3-0.3,0.6-0.4,1.4-0.4h0.1
			C51.6,28.5,51.6,30.4,51.6,30.4z M50.3,29.8c0,0.4,0.3,0.6,0.8,0.6v-1.2C50.6,29.2,50.3,29.4,50.3,29.8z"/>
		<path class="st1" d="M53,26h-2.1c-0.4,0-0.5,0.1-0.5,0.3c0,0.2,0.1,0.5,0.3,0.7H53v0.7h-2.3c-0.3,0-0.5,0-0.7,0.1l-0.2-0.6
			c0.1-0.1,0.3-0.1,0.5-0.1c-0.3-0.3-0.4-0.6-0.4-0.9c0-0.5,0.3-0.8,0.9-0.8h2.4L53,26L53,26z"/>
		<path class="st1" d="M53.1,23.1c0,0.9-0.6,1.4-1.6,1.4c-1.2,0-1.7-0.7-1.7-1.4c0-0.3,0.1-0.6,0.3-0.9l0.5,0.3
			c-0.1,0.2-0.3,0.3-0.3,0.5c0,0.2,0.1,0.4,0.3,0.5c0.2,0.1,0.5,0.1,0.9,0.1c0.4,0,0.7-0.1,0.9-0.2c0.1-0.1,0.2-0.3,0.2-0.4
			c0-0.2-0.1-0.4-0.3-0.6l0.4-0.3C52.9,22.4,53.1,22.7,53.1,23.1z"/>
		<path class="st1" d="M53.1,20c0.7,0.3,1.2,0.5,1.3,1.2l-0.5,0.2c-0.1-0.4-0.3-0.7-0.9-0.9v0.2c-0.3,0.1-0.7,0.2-0.9,0.3L50,21.8
			l-0.1-0.7l1.9-0.5c0.2-0.1,0.7-0.1,0.7-0.2c0,0-0.5-0.1-0.9-0.2l-1.7-0.5v-0.7L53.1,20z"/>
	</g>
	<g>
		<path class="st1" d="M27.3,35.9c0-0.1-0.1-0.2-0.1-0.3c0-0.1-0.1-0.2-0.1-0.3c0-0.1-0.1-0.3-0.1-0.5s0-0.5,0-0.9v-2.7
			c0-0.8-0.1-1.4-0.4-1.7S25.9,29,25.3,29h-0.9v7h-2.7V18.9h4.1c1.4,0,2.4,0.3,3,0.9c0.6,0.7,0.9,1.6,0.9,3v1.4
			c0,1.8-0.6,2.9-1.8,3.5c0.7,0.3,1.2,0.7,1.4,1.4c0.3,0.6,0.4,1.4,0.4,2.3v2.6c0,0.4,0,0.8,0.1,1.1c0,0.3,0.1,0.6,0.3,0.9H27.3z
			 M24.4,21.3v5.2h1c0.5,0,0.9-0.1,1.2-0.4s0.4-0.7,0.4-1.4V23c0-0.6-0.1-1.1-0.3-1.4c-0.2-0.3-0.5-0.4-1-0.4L24.4,21.3L24.4,21.3z"
			/>
		<path class="st1" d="M33.8,26h3.7v2.4h-3.7v5h4.6v2.4h-7.3V18.9h7.3v2.4h-4.6V26z"/>
		<path class="st1" d="M39.6,18.9h4.3c1.4,0,2.4,0.3,3,1.1c0.7,0.7,1,1.8,1,3.1v8.6c0,1.4-0.3,2.4-1,3.1c-0.7,0.7-1.7,1.1-3,1.1
			h-4.3V18.9z M42.3,21.3v12.2h1.5c0.4,0,0.7-0.1,1-0.3c0.3-0.3,0.3-0.7,0.3-1.3V23c0-0.6-0.1-1-0.3-1.3c-0.3-0.3-0.6-0.3-1-0.3
			L42.3,21.3L42.3,21.3z"/>
		<path class="st1" d="M27.3,56.2c0-0.1-0.1-0.2-0.1-0.3c0-0.1-0.1-0.2-0.1-0.3c0-0.1-0.1-0.3-0.1-0.5s0-0.5,0-0.9v-2.7
			c0-0.8-0.1-1.4-0.4-1.7s-0.7-0.5-1.4-0.5h-0.9v7h-2.7V39.2h4.1c1.4,0,2.4,0.3,3,0.9c0.6,0.7,0.9,1.6,0.9,3v1.4
			c0,1.8-0.6,2.9-1.8,3.5c0.7,0.3,1.2,0.7,1.4,1.4c0.3,0.6,0.4,1.4,0.4,2.3v2.6c0,0.4,0,0.8,0.1,1.1c0,0.3,0.1,0.6,0.3,0.9
			L27.3,56.2L27.3,56.2z M24.4,41.6v5.2h1c0.5,0,0.9-0.1,1.2-0.4c0.3-0.3,0.4-0.7,0.4-1.4v-1.7c0-0.6-0.1-1.1-0.3-1.4
			c-0.2-0.3-0.5-0.4-1-0.4L24.4,41.6L24.4,41.6z"/>
		<path class="st1" d="M33.8,46.3h3.7v2.4h-3.7v5h4.6v2.4h-7.3V39.2h7.3v2.4h-4.6V46.3z"/>
		<path class="st1" d="M42.3,46.3H46v2.4h-3.7v5h4.6v2.4h-7.3V39.2h7.3v2.4h-4.6V46.3z"/>
	</g>
</g>
</svg>
