<svg height="200" version="1.1" width="200" xmlns="http://www.w3.org/2000/svg" xmlns:osb="http://www.openswatchbook.org/uri/2009/osb">
<g fill="none">
<path d="m200,100c0,55.22847-44.77153,100-100,100-55.228475,0-100-44.77153-100-100 0-55.228475 44.771525-100 100-100 55.22847,0 100,44.771525 100,100z"/>
<path d="m145,100c0,24.85281-20.14719,45-45,45-24.852814,0-45-20.14719-45-45 0-24.852814 20.147186-45 45-45 24.85281,0 45,20.147186 45,45z" stroke="#000" stroke-width="2.30773449" transform="matrix(2.16667,0,0,2.16667,-116.59375,-116.66657)"/>
</g>
</svg>
